<?xml version="1.0" encoding="utf-8" standalone="no"?>
<!DOCTYPE svg PUBLIC "-//W3C//DTD SVG 1.1//EN"
  "http://www.w3.org/Graphics/SVG/1.1/DTD/svg11.dtd">
<!-- Created with matplotlib (https://matplotlib.org/) -->
<svg height="345.6pt" version="1.1" viewBox="0 0 460.8 345.6" width="460.8pt" xmlns="http://www.w3.org/2000/svg" xmlns:xlink="http://www.w3.org/1999/xlink">
 <metadata>
  <rdf:RDF xmlns:cc="http://creativecommons.org/ns#" xmlns:dc="http://purl.org/dc/elements/1.1/" xmlns:rdf="http://www.w3.org/1999/02/22-rdf-syntax-ns#">
   <cc:Work>
    <dc:type rdf:resource="http://purl.org/dc/dcmitype/StillImage"/>
    <dc:date>2021-06-20T21:24:31.221842</dc:date>
    <dc:format>image/svg+xml</dc:format>
    <dc:creator>
     <cc:Agent>
      <dc:title>Matplotlib v3.3.2, https://matplotlib.org/</dc:title>
     </cc:Agent>
    </dc:creator>
   </cc:Work>
  </rdf:RDF>
 </metadata>
 <defs>
  <style type="text/css">*{stroke-linecap:butt;stroke-linejoin:round;}</style>
 </defs>
 <g id="figure_1">
  <g id="patch_1">
   <path d="M 0 345.6 
L 460.8 345.6 
L 460.8 0 
L 0 0 
z
" style="fill:#ffffff;"/>
  </g>
  <g id="axes_1">
   <g id="patch_2">
    <path d="M 57.6 307.584 
L 414.72 307.584 
L 414.72 41.472 
L 57.6 41.472 
z
" style="fill:#ffffff;"/>
   </g>
   <g id="matplotlib.axis_1"/>
   <g id="matplotlib.axis_2"/>
   <g id="line2d_1">
    <path clip-path="url(#pb94ede8193)" d="M 73.832727 295.488 
L 75.913846 295.484361 
L 77.994965 295.200436 
L 80.076084 294.804015 
L 82.157203 293.668898 
L 84.238322 292.186612 
L 86.319441 295.110588 
L 88.400559 294.519944 
L 90.481678 293.035197 
L 92.562797 288.299682 
L 94.643916 229.655695 
L 96.725035 61.44196 
L 98.806154 67.154836 
L 100.887273 64.511132 
L 102.968392 54.050743 
L 105.04951 53.568 
L 107.130629 149.208274 
L 109.211748 220.800376 
L 111.292867 220.743021 
L 113.373986 224.004021 
L 115.455105 229.226598 
L 117.536224 228.055481 
L 119.617343 225.349142 
L 121.698462 216.846744 
L 123.77958 203.9248 
L 125.860699 191.936935 
L 127.941818 173.404149 
L 130.022937 166.295078 
L 132.104056 163.990026 
L 134.185175 162.260933 
L 136.266294 157.42633 
L 138.347413 155.814019 
L 140.428531 151.518788 
L 142.50965 153.326588 
L 144.590769 149.430683 
L 146.671888 152.415208 
L 148.753007 153.133754 
L 150.834126 158.373624 
L 152.915245 167.975933 
L 154.996364 170.679816 
L 157.077483 176.556728 
L 159.158601 177.359887 
L 161.23972 175.132223 
L 163.320839 174.51023 
L 165.401958 174.803442 
L 167.483077 175.61494 
L 169.564196 180.279248 
L 171.645315 179.620783 
L 175.807552 175.519457 
L 177.888671 177.428733 
L 179.96979 181.283943 
L 182.050909 184.459344 
L 184.132028 186.92815 
L 186.213147 193.701871 
L 188.294266 192.778734 
L 190.375385 190.080605 
L 192.456503 192.677701 
L 194.537622 193.242569 
L 196.618741 195.120834 
L 198.69986 193.994888 
L 200.780979 189.932486 
L 202.862098 190.942624 
L 204.943217 185.098024 
L 207.024336 183.705007 
L 209.105455 181.13909 
L 211.186573 177.338323 
L 213.267692 178.92443 
L 215.348811 177.059629 
L 217.42993 186.14251 
L 219.511049 189.44521 
L 221.592168 197.183462 
L 223.673287 199.958625 
L 225.754406 211.608158 
L 227.835524 216.408671 
L 229.916643 223.097873 
L 231.997762 227.729431 
L 234.078881 238.236397 
L 236.16 242.872949 
L 238.241119 243.859938 
L 240.322238 247.150802 
L 242.403357 249.981298 
L 244.484476 254.063467 
L 246.565594 257.672353 
L 248.646713 258.702192 
L 250.727832 261.251805 
L 252.808951 262.655616 
L 254.89007 263.179798 
L 256.971189 263.373782 
L 261.133427 266.188507 
L 263.214545 266.54126 
L 265.295664 266.284446 
L 269.457902 269.231962 
L 271.539021 268.81781 
L 275.701259 269.717899 
L 279.863497 271.408813 
L 281.944615 271.556868 
L 284.025734 274.41673 
L 286.106853 274.289584 
L 288.187972 276.36993 
L 290.269091 276.654751 
L 292.35021 277.872707 
L 294.431329 279.38204 
L 296.512448 280.363749 
L 298.593566 280.353354 
L 300.674685 281.680331 
L 302.755804 282.28916 
L 308.999161 283.417097 
L 311.08028 284.605154 
L 313.161399 284.71207 
L 315.242517 285.699452 
L 317.323636 285.624583 
L 319.404755 285.791482 
L 321.485874 286.280532 
L 323.566993 287.021679 
L 325.648112 287.104645 
L 327.729231 287.567373 
L 329.81035 287.202311 
L 331.891469 287.893538 
L 333.972587 289.279895 
L 336.053706 289.329163 
L 338.134825 289.717821 
L 344.378182 290.412897 
L 346.459301 290.349003 
L 350.621538 291.15512 
L 352.702657 291.15405 
L 354.783776 291.539863 
L 356.864895 291.514148 
L 361.027133 291.752294 
L 363.108252 291.748936 
L 367.27049 292.185154 
L 371.432727 292.501305 
L 373.513846 292.429088 
L 377.676084 292.734842 
L 379.757203 292.710165 
L 381.838322 293.066752 
L 386.000559 293.221398 
L 388.081678 293.110185 
L 392.243916 293.210817 
L 394.325035 293.352845 
L 396.406154 293.131442 
L 398.487273 293.170115 
L 398.487273 293.170115 
" style="fill:none;stroke:#1f77b4;stroke-linecap:square;stroke-width:1.5;"/>
   </g>
   <g id="patch_3">
    <path d="M 57.6 307.584 
L 57.6 41.472 
" style="fill:none;stroke:#000000;stroke-linecap:square;stroke-linejoin:miter;stroke-width:0.8;"/>
   </g>
   <g id="patch_4">
    <path d="M 414.72 307.584 
L 414.72 41.472 
" style="fill:none;stroke:#000000;stroke-linecap:square;stroke-linejoin:miter;stroke-width:0.8;"/>
   </g>
   <g id="patch_5">
    <path d="M 57.6 307.584 
L 414.72 307.584 
" style="fill:none;stroke:#000000;stroke-linecap:square;stroke-linejoin:miter;stroke-width:0.8;"/>
   </g>
   <g id="patch_6">
    <path d="M 57.6 41.472 
L 414.72 41.472 
" style="fill:none;stroke:#000000;stroke-linecap:square;stroke-linejoin:miter;stroke-width:0.8;"/>
   </g>
  </g>
 </g>
 <defs>
  <clipPath id="pb94ede8193">
   <rect height="266.112" width="357.12" x="57.6" y="41.472"/>
  </clipPath>
 </defs>
</svg>
